<svg viewBox="0 0 3060 3031" fill="currentColor" xmlns="http://www.w3.org/2000/svg" color="#13537a">
  <g transform="matrix(1,0,0,1,-65250.942888,-11820.5589)">
    <g transform="matrix(3.921784,0,0,2.767757,-71701.975378,10720.543378)">
      <g transform="matrix(2.39864,0,0,2.39864,-49375.96351,-1337.851935)">
        <g>
          <g transform="matrix(0.554835,0,0,1.142448,17165.949765,-1157.853831)">
            <g transform="matrix(0.326785,0,0,0.332392,26863.47581,1324.18605)">
              <path d="M17107.757,2072.944C17502.378,2081.124 17897.014,2088.974 18291.635,2097.169C18322.132,2097.802 18339.887,2102.437 18343.846,2103.47C18354.165,2106.164 18358.673,2108.814 18359.774,2109.461C18361.455,2110.449 18363.029,2111.578 18364.128,2112.889C18364.142,2112.905 18365.675,2116.501 18365.672,2116.509C18365.184,2117.714 18365.091,2119.028 18364.201,2120.123C18363.628,2120.828 18361.359,2123.62 18353.117,2126.819C18336.183,2133.393 18310.666,2135.403 18306.843,2135.704C18288.178,2137.174 18288.108,2136.635 17082.689,2172.35C17077.047,2172.517 17070.186,2172.134 17069.103,2172.073C16999.906,2168.204 16946.738,2128.206 16948.38,2080.688C16948.648,2072.95 16950.347,2067.278 16950.588,2066.289C16955.281,2047.005 16960.2,2027.744 16964.656,2008.433C16980.355,1940.403 16994.814,1872.242 17011.055,1804.27C17025.201,1745.063 17040.688,1686.007 17055.813,1626.911C17059.507,1612.48 17094.809,1474.551 17104.809,1446.859C17108.192,1437.491 17108.531,1437.55 17148.435,1329.985C17167.806,1277.771 17205.582,1243.34 17224.936,1227.467C17236.252,1218.186 17249.008,1209.809 17251.223,1208.354C17322.272,1161.69 17414.229,1137.514 17505.044,1136.549C17537.092,1136.208 17634.026,1136.571 17645.241,1136.613C17658.925,1136.664 18329.962,1139.619 18330.029,1139.628C18333.648,1140.106 18337.446,1140.163 18340.885,1141.064C18344.214,1141.935 18347.343,1143.252 18350.009,1144.859C18350.935,1145.418 18356.254,1148.625 18358.327,1153.714C18359.747,1157.198 18359.055,1160.211 18358.927,1160.77C18357.729,1165.986 18352.988,1169.584 18352.163,1170.211C18349.787,1172.014 18346.902,1173.565 18343.742,1174.689C18340.478,1175.85 18336.794,1176.398 18333.201,1176.957C18333.084,1176.975 17667.126,1231.927 17653.591,1233.035C17607.826,1236.78 17562.01,1240.231 17516.22,1243.836C17510.068,1244.321 17502.07,1245.484 17500.85,1245.661C17448.241,1253.312 17402.897,1274.47 17374.375,1304.28C17369.133,1309.759 17349.965,1328.919 17343.927,1358.254L17343.791,1358.93C17335.513,1399.444 17319.412,1466.751 17317.172,1476.114C17315.031,1485.065 17312.154,1493.93 17309.399,1502.804C17295.111,1548.815 17262.848,1642.611 17258.673,1654.749C17211.527,1791.811 17202.86,1815.825 17197.816,1829.801C17153.096,1953.714 17149.388,1958.039 17107.757,2072.944Z"/>
            </g>
            <g transform="matrix(1,0,0,1,-9.191416,51.549343)">
              <g transform="matrix(0.45891,0,0,0.315799,24451.585799,1274.050534)">
                <circle cx="17768.589" cy="1694.089" r="98.305"/>
              </g>
              <g transform="matrix(0.45891,0,0,0.315799,24648.33989,1235.953043)">
                <circle cx="17768.589" cy="1694.089" r="98.305"/>
              </g>
              <g transform="matrix(0.459571,0,0,0.316254,24435.746484,1276.848606)">
                <path d="M18234.156,1560.037C18234.465,1561.862 18234.956,1563.666 18235.082,1565.513C18235.14,1566.364 18235.449,1570.87 18233.688,1576.088C18230.073,1586.8 18221.605,1591.096 18220.121,1591.849C18218.474,1592.685 18216.696,1593.239 18214.954,1593.854C18214.202,1594.12 18213.397,1594.216 18212.648,1594.489C18204.885,1597.326 18197.198,1600.37 18189.426,1603.181C18132.092,1623.922 18097.845,1635.624 18089.851,1638.356C18044.042,1654.009 18020.752,1661.204 18014.705,1663.072C18004.097,1666.349 17993.455,1669.523 17982.759,1672.502C17977.916,1673.852 17958.081,1679.377 17921.774,1687.665C17911.2,1690.079 17900.602,1692.385 17889.995,1694.643C17879.548,1696.867 17869.091,1699.049 17858.611,1701.113C17808.11,1711.058 17808.084,1710.898 17757.431,1720.035C17756.893,1720.132 17756.356,1720.226 17755.818,1720.322C17744.6,1722.316 17736.158,1717.521 17734.665,1716.673C17732.954,1715.7 17721.896,1709.419 17721.195,1696.08C17721.153,1695.266 17720.933,1691.096 17722.73,1686.014C17726.42,1675.574 17734.708,1670.611 17736.156,1669.744C17739.276,1667.876 17739.337,1667.989 17742.742,1666.711C17790.929,1648.622 17790.869,1648.472 17839.342,1631.155C17849.4,1627.562 17859.499,1624.081 17869.612,1620.643C17904.359,1608.827 17926.154,1602.231 17931.103,1600.733C17940.912,1597.764 17950.741,1594.854 17960.629,1592.161C17971.342,1589.244 17982.108,1586.521 17992.899,1583.904C17999.049,1582.412 18022.738,1576.667 18070.101,1566.656C18078.367,1564.908 18113.775,1557.424 18173.643,1545.882C18181.759,1544.318 18189.92,1542.996 18198.041,1541.457C18198.821,1541.31 18199.571,1541.036 18200.336,1540.825C18211.274,1537.812 18219.746,1542.624 18221.209,1543.456C18228.449,1547.569 18231.576,1553.732 18232.148,1554.86L18234.156,1560.037Z"/>
              </g>
            </g>
          </g>
          <g transform="matrix(-0.181186,0.009578,-0.009991,-0.379476,38560.586062,1384.036769)">
            <path d="M17107.848,2073.597C17159.914,2074.848 17211.978,2076.156 17264.052,2077.256L18273.564,2097.251L18291.635,2097.168C18293.578,2097.293 18295.549,2097.288 18297.465,2097.543C18299.191,2097.772 18309.041,2099.081 18315.798,2105.75C18319.088,2108.996 18320.072,2112.159 18320.258,2112.756C18322.774,2120.841 18317.016,2126.691 18316.018,2127.705C18309.395,2134.435 18299.572,2135.834 18297.851,2136.079C18295.941,2136.351 18293.98,2136.465 18292.029,2136.507C18286.008,2136.636 18279.976,2136.422 18273.957,2136.59L17264.744,2165.842C17204.048,2167.681 17143.371,2169.81 17082.684,2171.787C17077.613,2171.952 17071.091,2171.628 17070.086,2171.578C17001.22,2168.15 16947.776,2128.663 16948.789,2081.326C16948.962,2073.248 16950.732,2067.331 16950.966,2066.341C16955.534,2047.039 16960.739,2027.801 16964.656,2008.433C16972.3,1970.642 16979.215,1932.783 16985.645,1894.888C16993.058,1851.209 16998.79,1807.404 17006.183,1763.722C17013.782,1718.822 17021.72,1673.945 17030.618,1629.154C17034.879,1607.709 17040.258,1586.37 17045.656,1565.042C17048.235,1554.853 17051.548,1544.754 17054.547,1534.617C17057.428,1524.879 17059.961,1515.09 17063.298,1505.419C17093.682,1417.338 17094.404,1417.458 17128.145,1329.936C17131.492,1321.253 17139.795,1297.413 17163.312,1267.073C17168.17,1260.805 17174.754,1253.654 17175.807,1252.51C17248.771,1173.265 17374.5,1127.183 17504.107,1126.455C17534.906,1126.282 17599.18,1127.188 17607.445,1127.305C17965.26,1132.346 17965.244,1132.692 18322.994,1139.489L18330.029,1139.628C18333.651,1140.146 18337.456,1140.257 18340.895,1141.185C18344.222,1142.083 18347.349,1143.409 18350.022,1145.021C18356.267,1148.787 18358.002,1152.983 18358.333,1153.785C18359.744,1157.198 18359.049,1160.151 18358.921,1160.699C18358.727,1161.521 18357.715,1165.824 18352.149,1170.049C18349.766,1171.858 18346.884,1173.418 18343.731,1174.567C18340.472,1175.755 18336.784,1176.327 18333.201,1176.957C18333.144,1176.967 18019.486,1207.506 18017.199,1207.724C17884.063,1220.42 17750.882,1232.905 17617.666,1245.21C17584.18,1248.303 17550.619,1251.01 17517.097,1253.92C17517.063,1253.923 17509.976,1254.622 17500.858,1256.171C17439.849,1266.533 17392.161,1296.371 17372.825,1334.069C17369.67,1340.22 17365.572,1347.641 17363.098,1361.65C17359.2,1383.731 17348.236,1431.179 17346.842,1437.215C17338.841,1471.84 17330.502,1506.432 17321.698,1540.968C17319.205,1550.747 17315.904,1560.424 17312.954,1570.145C17309.883,1580.264 17307.122,1590.431 17303.633,1600.488C17296.331,1621.538 17289.004,1642.594 17280.587,1663.452C17263.005,1707.022 17244.487,1750.42 17225.645,1793.748C17207.31,1835.909 17186.845,1877.643 17169.062,1919.913C17147.594,1970.941 17128.876,2022.486 17107.848,2073.597Z"/>
          </g>
        </g>
      </g>
    </g>
  </g>
</svg>
